<?xml version="1.0" encoding="utf-8"?>
<!-- Generator: Adobe Illustrator 21.1.0, SVG Export Plug-In . SVG Version: 6.00 Build 0)  -->
<!DOCTYPE svg PUBLIC "-//W3C//DTD SVG 1.1//EN" "http://www.w3.org/Graphics/SVG/1.1/DTD/svg11.dtd">
<svg version="1.1" id="Layer_1" xmlns="http://www.w3.org/2000/svg" xmlns:xlink="http://www.w3.org/1999/xlink" x="0px" y="0px"
	 viewBox="0 0 64 64" style="enable-background:new 0 0 64 64;" xml:space="preserve">
<g>
	<g>
		<path d="M8.5,36.8c-0.1,0-0.2,0-0.4-0.1c-0.5-0.1-0.8-0.5-0.9-1l-0.9-5.2l-4.8-2.2c-0.4-0.2-0.7-0.6-0.7-1.1
			c0-0.5,0.3-0.9,0.7-1.1l4.7-2.4l0.7-5.2c0.1-0.5,0.4-0.9,0.8-1c0.4-0.2,0.9,0,1.3,0.3l3.8,3.7l5.2-1c0.5-0.1,0.9,0.1,1.2,0.5
			c0.3,0.4,0.3,0.9,0.1,1.3l-2.4,4.7l2.5,4.6c0.2,0.4,0.2,0.9-0.1,1.3c-0.3,0.4-0.7,0.6-1.2,0.5L13,32.6l-3.6,3.9
			C9.1,36.7,8.8,36.8,8.5,36.8z M4.9,27.1L8,28.6c0.4,0.2,0.6,0.5,0.7,0.9l0.6,3.4l2.3-2.5c0.3-0.3,0.7-0.4,1.1-0.4l3.4,0.5l-1.7-3
			c-0.2-0.4-0.2-0.8,0-1.2l1.5-3.1L12.6,24c-0.4,0.1-0.8,0-1.1-0.3l-2.4-2.4l-0.4,3.4C8.6,25,8.3,25.4,8,25.6L4.9,27.1z"/>
	</g>
	<g>
		<path d="M52.4,33.7c-0.1,0-0.1,0-0.2,0c-0.5-0.1-0.9-0.4-1-0.8l-1.7-5l-5.1-1.4c-0.5-0.1-0.8-0.5-0.9-1c-0.1-0.5,0.1-0.9,0.5-1.2
			l4.2-3.2l-0.2-5.3c0-0.5,0.2-0.9,0.6-1.1c0.4-0.2,0.9-0.2,1.3,0.1l4.3,3.1l5-1.8c0.4-0.2,0.9-0.1,1.3,0.3c0.3,0.3,0.5,0.8,0.3,1.3
			l-1.6,5l3.3,4.2c0.3,0.4,0.3,0.9,0.1,1.3c-0.2,0.4-0.6,0.7-1.1,0.7l-5.3,0.1l-2.9,4.4C53.2,33.5,52.8,33.7,52.4,33.7z M47.5,24.7
			l3.3,0.9c0.4,0.1,0.7,0.4,0.8,0.8l1.1,3.2l1.9-2.8c0.2-0.3,0.6-0.5,1-0.5l3.4,0L57,23.6c-0.3-0.3-0.3-0.7-0.2-1.1l1-3.3l-3.2,1.2
			c-0.4,0.1-0.8,0.1-1.1-0.2l-2.8-2l0.1,3.4c0,0.4-0.2,0.8-0.5,1L47.5,24.7z"/>
	</g>
	<g>
		<path d="M21.9,21.7c-0.2,0-0.3,0-0.5-0.1c-0.4-0.2-0.7-0.6-0.8-1.1l-0.3-3.7L17.1,15c-0.4-0.2-0.6-0.7-0.6-1.2
			c0-0.5,0.3-0.9,0.8-1.1l3.5-1.4l0.8-3.7c0.1-0.5,0.4-0.8,0.9-0.9c0.5-0.1,0.9,0,1.2,0.4l2.4,2.8l3.7-0.4c0.5,0,0.9,0.2,1.2,0.6
			c0.3,0.4,0.3,0.9,0,1.3l-2,3.2l1.5,3.4c0.2,0.4,0.1,0.9-0.2,1.3c-0.3,0.4-0.8,0.5-1.2,0.4l-3.6-0.9l-2.8,2.5
			C22.5,21.6,22.2,21.7,21.9,21.7z M20.5,14.1l1.6,0.9c0.4,0.2,0.6,0.6,0.6,1l0.1,1.9l1.4-1.3c0.3-0.3,0.7-0.4,1.1-0.3l1.8,0.4
			L26.5,15c-0.2-0.4-0.1-0.8,0.1-1.1l1-1.6l-1.9,0.2c-0.4,0-0.8-0.1-1.1-0.4l-1.2-1.4L23,12.5c-0.1,0.4-0.4,0.7-0.7,0.9L20.5,14.1z"
			/>
	</g>
	<g>
		<path d="M42,17.6c-0.4,0-0.8-0.2-1-0.6l-2.2-3.4l-4-0.1c-0.5,0-0.9-0.3-1.1-0.7c-0.2-0.4-0.1-0.9,0.2-1.3l2.6-3.1l-1.1-3.9
			c-0.1-0.5,0-0.9,0.4-1.3C36,2.9,36.5,2.8,36.9,3l3.8,1.5L44,2.2c0.4-0.3,0.9-0.3,1.3,0c0.4,0.2,0.6,0.7,0.6,1.1l-0.2,4l3.2,2.5
			c0.4,0.3,0.5,0.8,0.4,1.2c-0.1,0.5-0.4,0.8-0.9,0.9l-3.9,1l-1.4,3.8c-0.2,0.4-0.6,0.8-1,0.8C42.1,17.6,42,17.6,42,17.6z
			 M37.3,11.1l2.2,0.1c0.4,0,0.8,0.2,1,0.6l1.2,1.8l0.7-2.1c0.1-0.4,0.5-0.7,0.9-0.8l2.1-0.5l-1.7-1.3c-0.3-0.3-0.5-0.6-0.5-1
			l0.1-2.2l-1.8,1.2c-0.3,0.2-0.8,0.3-1.1,0.1l-2-0.8l0.6,2.1c0.1,0.4,0,0.8-0.2,1.1L37.3,11.1z"/>
	</g>
	<g>
		<path d="M37.6,45.6c-0.3,0-0.6-0.1-0.8-0.3l-5.4-5l-7.2,1.6c-0.5,0.1-0.9-0.1-1.2-0.4c-0.3-0.4-0.4-0.9-0.2-1.3l3.1-6.7l-3.7-6.3
			c-0.2-0.4-0.2-0.9,0-1.3c0.3-0.4,0.7-0.6,1.2-0.6l7.3,0.9l4.8-5.5c0.3-0.4,0.8-0.5,1.2-0.4c0.5,0.1,0.8,0.5,0.9,1l1.4,7.2l6.7,2.9
			c0.4,0.2,0.7,0.6,0.7,1.1c0,0.5-0.2,0.9-0.6,1.1l-6.4,3.6l-0.7,7.3c0,0.5-0.3,0.9-0.8,1C37.9,45.6,37.7,45.6,37.6,45.6z
			 M31.7,37.7c0.3,0,0.6,0.1,0.8,0.3l4,3.7l0.5-5.5c0-0.4,0.3-0.8,0.6-1l4.8-2.7l-5-2.2c-0.4-0.2-0.6-0.5-0.7-0.9l-1.1-5.4L32,28.3
			c-0.3,0.3-0.7,0.5-1.1,0.4l-5.4-0.6l2.8,4.7c0.2,0.3,0.2,0.8,0.1,1.1l-2.3,5l5.3-1.2C31.5,37.7,31.6,37.7,31.7,37.7z"/>
	</g>
	<g>
		<path d="M26.6,62.4c-0.7,0-1.2-0.5-1.2-1.2C25,48,13.8,37.5,13.6,37.4c-0.5-0.5-0.5-1.2-0.1-1.7c0.5-0.5,1.2-0.5,1.7-0.1
			c0.5,0.5,12.2,11.3,12.5,25.5C27.9,61.8,27.3,62.3,26.6,62.4C26.6,62.4,26.6,62.4,26.6,62.4z"/>
	</g>
	<g>
		<path d="M42.9,62c-0.7,0-1.2-0.5-1.2-1.2c-1.1-18.5,7.5-24.4,7.8-24.7c0.6-0.4,1.3-0.2,1.7,0.3c0.4,0.6,0.2,1.3-0.3,1.7
			c-0.1,0.1-7.7,5.5-6.7,22.5C44.2,61.4,43.6,62,42.9,62C42.9,62,42.9,62,42.9,62z"/>
	</g>
	<g>
		<path d="M34.9,61.8c-0.7,0-1.2-0.6-1.2-1.2c0-10.2-4.2-16.4-4.3-16.4c-0.4-0.6-0.3-1.3,0.3-1.7c0.6-0.4,1.3-0.3,1.7,0.3
			c0.2,0.3,4.7,6.9,4.7,17.9C36.2,61.3,35.6,61.8,34.9,61.8z"/>
	</g>
</g>
</svg>
