<?xml version="1.0" encoding="utf-8"?>
<!-- Generator: Adobe Illustrator 21.1.0, SVG Export Plug-In . SVG Version: 6.00 Build 0)  -->
<!DOCTYPE svg PUBLIC "-//W3C//DTD SVG 1.1//EN" "http://www.w3.org/Graphics/SVG/1.1/DTD/svg11.dtd">
<svg version="1.1" id="Layer_1" xmlns="http://www.w3.org/2000/svg" xmlns:xlink="http://www.w3.org/1999/xlink" x="0px" y="0px"
	 viewBox="0 0 64 64" style="enable-background:new 0 0 64 64;" xml:space="preserve">
<g>
	<g>
		<path d="M2.2,60.1c-0.3,0-0.6-0.1-0.8-0.3c-0.5-0.5-0.5-1.2,0-1.7l25.9-25.9c0.5-0.5,1.2-0.5,1.7,0c0.5,0.5,0.5,1.2,0,1.7L3,59.8
			C2.8,60,2.5,60.1,2.2,60.1z"/>
	</g>
	<g>
		<path d="M31,35.4c-2.9,0-5.3-2.4-5.3-5.3c0-2.9,2.4-5.3,5.3-5.3c2.9,0,5.3,2.4,5.3,5.3C36.3,33,33.9,35.4,31,35.4z M31,27.2
			c-1.6,0-2.9,1.3-2.9,2.9c0,1.6,1.3,2.9,2.9,2.9c1.6,0,2.9-1.3,2.9-2.9C34,28.5,32.6,27.2,31,27.2z"/>
	</g>
	<g>
		<path d="M20.4,31.6H14c-0.7,0-1.2-0.5-1.2-1.2c0-0.7,0.5-1.2,1.2-1.2h6.4c0.7,0,1.2,0.5,1.2,1.2C21.6,31,21,31.6,20.4,31.6z"/>
	</g>
	<g>
		<path d="M23.6,23.3c-0.3,0-0.6-0.1-0.8-0.3l-4.5-4.5c-0.5-0.5-0.5-1.2,0-1.7c0.5-0.5,1.2-0.5,1.7,0l4.5,4.5c0.5,0.5,0.5,1.2,0,1.7
			C24.2,23.2,23.9,23.3,23.6,23.3z"/>
	</g>
	<g>
		<path d="M31.8,20.7c-0.7,0-1.2-0.5-1.2-1.2v-6.6c0-0.7,0.5-1.2,1.2-1.2c0.7,0,1.2,0.5,1.2,1.2v6.6C33,20.1,32.5,20.7,31.8,20.7z"
			/>
	</g>
	<g>
		<path d="M39.3,23.9c-0.3,0-0.6-0.1-0.8-0.3c-0.5-0.5-0.5-1.2,0-1.7l4.8-4.8c0.5-0.5,1.2-0.5,1.7,0c0.5,0.5,0.5,1.2,0,1.7l-4.8,4.8
			C39.9,23.7,39.6,23.9,39.3,23.9z"/>
	</g>
	<g>
		<path d="M49.1,33.2c-0.1,0-0.2,0-0.3,0l-7.2-1.9c-0.6-0.2-1-0.8-0.8-1.4c0.2-0.6,0.8-1,1.4-0.8l7.2,1.9c0.6,0.2,1,0.8,0.8,1.4
			C50.1,32.8,49.6,33.2,49.1,33.2z"/>
	</g>
	<g>
		<path d="M41.5,43c-0.4,0-0.8-0.2-1-0.5l-3.4-5.2c-0.4-0.5-0.2-1.3,0.3-1.6c0.5-0.4,1.3-0.2,1.6,0.3l3.4,5.2
			c0.4,0.5,0.2,1.3-0.3,1.6C42,43,41.7,43,41.5,43z"/>
	</g>
	<g>
		<path d="M28.5,46.3c-0.1,0-0.2,0-0.3,0c-0.6-0.2-1-0.8-0.9-1.4l1.3-5.3c0.2-0.6,0.8-1,1.4-0.9c0.6,0.2,1,0.8,0.9,1.4l-1.3,5.3
			C29.5,46,29,46.3,28.5,46.3z"/>
	</g>
	<g>
		<polygon points="27.5,9.7 25.1,11.3 25.1,14.1 22.9,12.3 20.2,13.2 21.2,10.5 19.5,8.2 22.4,8.3 24.1,6 24.8,8.8 		"/>
	</g>
	<g>
		<polygon points="63.6,25.9 61.3,27.5 61.2,30.3 59,28.5 56.3,29.4 57.3,26.7 55.7,24.4 58.5,24.5 60.2,22.3 61,25 		"/>
	</g>
	<g>
		<polygon points="42.9,49.8 40.6,51.4 40.5,54.2 38.3,52.5 35.6,53.3 36.6,50.6 35,48.3 37.8,48.4 39.5,46.2 40.2,48.9 		"/>
	</g>
	<g>
		<circle cx="59.2" cy="45" r="1.9"/>
	</g>
	<g>
		<circle cx="39.9" cy="7.7" r="2.3"/>
	</g>
</g>
</svg>
