<?xml version="1.0" encoding="utf-8"?>
<!-- Generator: Adobe Illustrator 21.1.0, SVG Export Plug-In . SVG Version: 6.00 Build 0)  -->
<!DOCTYPE svg PUBLIC "-//W3C//DTD SVG 1.1//EN" "http://www.w3.org/Graphics/SVG/1.1/DTD/svg11.dtd">
<svg version="1.1" id="Layer_1" xmlns="http://www.w3.org/2000/svg" xmlns:xlink="http://www.w3.org/1999/xlink" x="0px" y="0px"
	 viewBox="0 0 64 64" style="enable-background:new 0 0 64 64;" xml:space="preserve">
<style type="text/css">
	.st0{fill:none;stroke:#000000;stroke-width:2.632;stroke-miterlimit:10;}
	.st1{fill:none;stroke:#000000;stroke-width:2.632;stroke-linejoin:round;stroke-miterlimit:10;}
</style>
<g>
	<polyline class="st0" points="58.3,24.1 53.1,24.1 34.6,24.1 5.7,24.1 	"/>
	<line class="st0" x1="42.5" y1="10.9" x2="21.5" y2="10.9"/>
	<path class="st0" d="M13.6,10.9H8.3c-1.5,0-2.6,1.2-2.6,2.6v40.8c0,1.5,1.2,2.6,2.6,2.6h47.4c1.5,0,2.6-1.2,2.6-2.6V13.6
		c0-1.5-1.2-2.6-2.6-2.6h-5.3"/>
	<path class="st0" d="M49.1,4.4h-5.3c-0.7,0-1.3,0.6-1.3,1.3v9.2h7.9V5.7C50.4,5,49.8,4.4,49.1,4.4z"/>
	<path class="st0" d="M20.2,4.4h-5.3c-0.7,0-1.3,0.6-1.3,1.3v9.2h7.9V5.7C21.5,5,20.9,4.4,20.2,4.4z"/>
	<polyline class="st1" points="21.5,43.4 28.7,51.4 46.2,29.4 	"/>
</g>
</svg>
