<?xml version="1.0" encoding="utf-8"?>
<!-- Generator: Adobe Illustrator 21.1.0, SVG Export Plug-In . SVG Version: 6.00 Build 0)  -->
<!DOCTYPE svg PUBLIC "-//W3C//DTD SVG 1.1//EN" "http://www.w3.org/Graphics/SVG/1.1/DTD/svg11.dtd">
<svg version="1.1" id="Layer_1" xmlns="http://www.w3.org/2000/svg" xmlns:xlink="http://www.w3.org/1999/xlink" x="0px" y="0px"
	 viewBox="0 0 64 64" style="enable-background:new 0 0 64 64;" xml:space="preserve">
<path d="M51.1,15.9c1.4-3,0.8-6.6-1.6-9C48,5.4,46,4.5,43.9,4.5c-2.1,0-4.1,0.8-5.7,2.3c-1.7,1.7-3.9,5.1-5.2,7.4
	c-1.3-2.2-3.5-5.6-5.2-7.4c-3.1-3.1-8.2-3.1-11.3,0c-2.4,2.4-3,6-1.6,9H5.4v16h4.4V58h46.5V31.9h4.4v-16H51.1z M40.3,8.9L40.3,8.9
	c1-1,2.2-1.5,3.6-1.5c1.4,0,2.6,0.5,3.6,1.5c1,1,1.5,2.3,1.5,3.6c0,1.1-0.4,2.2-1.1,3.2H35.5C36.8,13.6,38.8,10.4,40.3,8.9z
	 M27.5,55.1V31.9h10.9v23.3H27.5z M27.5,29V18.8h10.9V29H27.5z M18.5,8.9c1-1,2.2-1.5,3.6-1.5c1.4,0,2.6,0.5,3.6,1.5
	c1.5,1.5,3.5,4.6,4.8,6.8H18.1c-0.7-0.9-1.1-2-1.1-3.2C17,11.2,17.5,9.9,18.5,8.9z M8.3,29V18.8h17.1V29H8.3z M12.6,31.9h12.7v23.3
	H12.6V31.9z M53.4,55.1H40.6V31.9h12.7V55.1z M57.7,29H40.6V18.8h17.1V29z"/>
</svg>
