<?xml version="1.0" encoding="utf-8"?>
<!-- Generator: Adobe Illustrator 24.1.2, SVG Export Plug-In . SVG Version: 6.00 Build 0)  -->
<svg version="1.1" id="Layer_1" xmlns="http://www.w3.org/2000/svg" xmlns:xlink="http://www.w3.org/1999/xlink" x="0px" y="0px"
	 viewBox="0 0 64 64" style="enable-background:new 0 0 64 64;" xml:space="preserve">
<g>
	<path d="M55.3,13.6c1.1,1.1,1.7,2.5,1.7,4V57c0,1.6-0.6,2.9-1.7,4c-1.1,1.1-2.5,1.7-4,1.7H17.1c-1.6,0-2.9-0.6-4-1.7
		c-1.1-1.1-1.7-2.5-1.7-4V43.7h3.8V57c0,0.6,0.2,1,0.5,1.4c0.4,0.4,0.8,0.5,1.4,0.5h34.2c0.6,0,1-0.2,1.4-0.5
		c0.4-0.4,0.5-0.8,0.5-1.4V21H40.8c-0.8,0-1.5-0.3-2-0.8c-0.6-0.6-0.8-1.2-0.8-2V5.8H17.1c-0.6,0-1,0.2-1.4,0.5s-0.5,0.8-0.5,1.4
		v28.5h6.3c0.4,0,0.7,0.2,0.8,0.5l2.4,4.7l6.8-13.5c0.2-0.3,0.4-0.5,0.8-0.5c0.4,0,0.7,0.2,0.8,0.5l4.2,8.3h8.3c0.6,0,1,0.2,1.4,0.5
		c0.4,0.4,0.5,0.8,0.5,1.4c0,0.6-0.2,1-0.5,1.4c-0.4,0.4-0.8,0.5-1.4,0.5H34.9l-2.6-5.2l-6.8,13.5c-0.2,0.3-0.4,0.5-0.8,0.5
		c-0.4,0-0.7-0.2-0.8-0.5l-4.2-8.3H4.7c-0.6,0-0.9-0.3-0.9-0.9v-1.9c0-0.6,0.3-0.9,0.9-0.9h6.6V7.7c0-1.6,0.6-2.9,1.7-4
		c1.1-1.1,2.5-1.7,4-1.7h24.2c1.6,0,2.9,0.6,4,1.7L55.3,13.6z M41.8,17.2h11.4c-0.2-0.3-0.4-0.6-0.6-0.8l-10-10
		c-0.2-0.2-0.5-0.4-0.8-0.5V17.2z"/>
</g>
</svg>
