<?xml version="1.0" encoding="utf-8"?>
<!-- Generator: Adobe Illustrator 24.1.2, SVG Export Plug-In . SVG Version: 6.00 Build 0)  -->
<svg version="1.1" id="Layer_1" xmlns="http://www.w3.org/2000/svg" xmlns:xlink="http://www.w3.org/1999/xlink" x="0px" y="0px"
	 viewBox="0 0 64 64" style="enable-background:new 0 0 64 64;" xml:space="preserve">
<g>
	<path d="M55.3,11.5c1.3,0,2.4,0.5,3.3,1.4c0.9,0.9,1.4,2,1.4,3.3v34.2c0,1.3-0.5,2.4-1.4,3.3c-0.9,0.9-2,1.4-3.3,1.4H8.6
		c-1.3,0-2.4-0.5-3.3-1.4c-0.9-0.9-1.4-2-1.4-3.3V16.2c0-1.3,0.5-2.4,1.4-3.3c0.9-0.9,2-1.4,3.3-1.4H55.3z M8.6,14.6
		c-0.5,0-0.8,0.1-1.1,0.4C7.2,15.3,7,15.7,7,16.2v4.7h49.8v-4.7c0-0.5-0.1-0.8-0.4-1.1c-0.3-0.3-0.7-0.4-1.1-0.4H8.6z M55.3,52
		c0.5,0,0.8-0.1,1.1-0.4c0.3-0.3,0.4-0.7,0.4-1.1V30.2H7v20.2c0,0.5,0.1,0.8,0.4,1.1C7.7,51.8,8.1,52,8.6,52H55.3z M22.6,43.8v0.8
		c0,0.8-0.4,1.2-1.2,1.2h-7c-0.8,0-1.2-0.4-1.2-1.2v-0.8c0-0.8,0.4-1.2,1.2-1.2h7C22.2,42.6,22.6,43,22.6,43.8z"/>
</g>
<path d="M47.4,49.2c-0.4,0-0.6-0.2-0.6-0.6v-1.2c-0.9-0.1-1.7-0.4-2.4-0.9c-0.2-0.1-0.2-0.3-0.2-0.5c0-0.2,0.1-0.3,0.2-0.5l0.9-0.8
	c0.1-0.1,0.2-0.2,0.4-0.2c0.2,0,0.3,0,0.4,0.1c0.3,0.2,0.6,0.3,1,0.3h2.1c0.3,0,0.5-0.1,0.7-0.3c0.2-0.2,0.3-0.4,0.3-0.7
	c0-0.5-0.2-0.8-0.7-1l-3.4-1c-0.7-0.3-1.3-0.7-1.8-1.3c-0.5-0.6-0.7-1.3-0.7-2.1c0-0.9,0.3-1.7,1-2.4c0.6-0.7,1.4-1,2.3-1.1v-1.2
	c0-0.4,0.2-0.6,0.6-0.6h1.2c0.4,0,0.6,0.2,0.6,0.6v1.2c0.9,0.1,1.7,0.4,2.4,0.9c0.2,0.1,0.2,0.3,0.2,0.5c0,0.2-0.1,0.3-0.2,0.5
	l-0.9,0.8c-0.1,0.1-0.2,0.2-0.4,0.2c-0.2,0-0.3,0-0.4-0.1c-0.3-0.2-0.6-0.3-1-0.3h-2.1c-0.3,0-0.5,0.1-0.7,0.3
	c-0.2,0.2-0.3,0.4-0.3,0.7c0,0.5,0.2,0.8,0.7,1l3.4,1c0.7,0.3,1.3,0.7,1.8,1.3c0.5,0.6,0.7,1.3,0.7,2.1c0,0.4-0.1,0.7-0.2,1.1
	c-0.1,0.4-0.3,0.7-0.5,1c-0.2,0.3-0.4,0.5-0.7,0.7c-0.3,0.2-0.5,0.4-0.9,0.5c-0.3,0.1-0.7,0.2-1,0.2v1.2c0,0.4-0.2,0.6-0.6,0.6H47.4
	z"/>
</svg>
