<?xml version="1.0" encoding="utf-8"?>
<!-- Generator: Adobe Illustrator 24.1.2, SVG Export Plug-In . SVG Version: 6.00 Build 0)  -->
<svg version="1.1" id="Layer_1" xmlns="http://www.w3.org/2000/svg" xmlns:xlink="http://www.w3.org/1999/xlink" x="0px" y="0px"
	 viewBox="0 0 64 64" style="enable-background:new 0 0 64 64;" xml:space="preserve">
<g>
	<path d="M49.3,29.2c1.6,0.8,3,2,4.1,3.7c1.1,1.7,1.7,3.4,1.7,5.2v7.1c0,1.2-0.4,2.3-1.2,3.4c-0.8,1.1-1.8,1.8-2.9,2.3v4.4
		c0,0.6-0.2,1.1-0.6,1.5c-0.4,0.4-0.9,0.6-1.5,0.6h-2.1c-0.6,0-1.1-0.2-1.5-0.6c-0.4-0.4-0.6-0.9-0.6-1.5v-4.1h-33v4.1
		c0,0.6-0.2,1.1-0.6,1.5c-0.4,0.4-0.9,0.6-1.5,0.6H7.7c-0.6,0-1.1-0.2-1.5-0.6c-0.4-0.4-0.6-0.9-0.6-1.5v-4.4
		c-1.1-0.4-2.1-1.2-2.9-2.3c-0.8-1.1-1.2-2.2-1.2-3.4v-7.1C1.5,36.2,2,34.5,3,33c1-1.5,2.3-2.7,3.8-3.5l2.2-9
		c0.3-1.8,1.3-3.3,2.9-4.6c1.6-1.2,3.3-1.9,5.1-1.9h22.3c1.8,0,3.5,0.6,5.1,1.9c1.6,1.2,2.6,2.8,3,4.6L49.3,29.2z M50.9,45.1v-7.1
		c0-1.5-0.5-2.9-1.6-3.9c-1.1-1.1-2.4-1.6-3.9-1.6H11.1c-1.5,0-2.9,0.5-3.9,1.6c-1.1,1.1-1.6,2.4-1.6,3.9v7.1c0,0.5,0.2,0.9,0.5,1.3
		c0.3,0.3,0.8,0.5,1.3,0.5h41.7c0.5,0,0.9-0.2,1.3-0.5C50.8,46.1,50.9,45.7,50.9,45.1z M10.5,37.4c0.5-0.5,1.1-0.8,1.8-0.8
		c0.7,0,1.3,0.3,1.8,0.8c0.5,0.5,0.8,1.1,0.8,1.8c0,0.7-0.3,1.3-0.8,1.8c-0.5,0.5-1.1,0.8-1.8,0.8c-0.7,0-1.3-0.3-1.8-0.8
		c-0.5-0.5-0.8-1.1-0.8-1.8C9.7,38.5,10,37.9,10.5,37.4z M12.9,21.3l-1.7,7.1h33.6l-1.7-7.1c-0.1-0.4-0.3-0.8-0.5-1.2
		c-0.3-0.4-0.6-0.7-0.9-1c-0.3-0.3-0.8-0.5-1.2-0.7c-0.5-0.2-0.9-0.3-1.4-0.3H16.9c-0.9,0-1.7,0.3-2.5,1
		C13.6,19.7,13.1,20.5,12.9,21.3z M42.4,37.4c0.5-0.5,1.1-0.8,1.8-0.8c0.7,0,1.3,0.3,1.8,0.8c0.5,0.5,0.8,1.1,0.8,1.8
		c0,0.7-0.3,1.3-0.8,1.8c-0.5,0.5-1.1,0.8-1.8,0.8c-0.7,0-1.3-0.3-1.8-0.8c-0.5-0.5-0.8-1.1-0.8-1.8C41.7,38.5,41.9,37.9,42.4,37.4z
		"/>
</g>
<g>
	<path d="M55.6,59.6H0.9v-2.9h54.7c0.7,0,1-0.1,1.2-0.2c0.3-0.3,0.3-1.7,0.3-2.9l0-1.1c0-5.3,2.5-7.2,4.7-7.2h0.8v2.9h-0.8
		c-0.9,0-1.8,1.5-1.8,4.3l0,1.1c0,2.1,0,3.8-1.1,5C58,59.2,57,59.6,55.6,59.6z"/>
</g>
</svg>
