<?xml version="1.0" encoding="utf-8"?>
<!-- Generator: Adobe Illustrator 24.1.2, SVG Export Plug-In . SVG Version: 6.00 Build 0)  -->
<svg version="1.1" id="Layer_1" xmlns="http://www.w3.org/2000/svg" xmlns:xlink="http://www.w3.org/1999/xlink" x="0px" y="0px"
	 viewBox="0 0 64 64" style="enable-background:new 0 0 64 64;" xml:space="preserve">
<g>
	<path d="M18.3,1.4c0.4,0.3,0.6,0.8,0.5,1.3c-0.1,0.6-0.3,1-0.9,1.2c-3.2,1.6-5.9,3.7-8.1,6.5c-2.2,2.8-3.8,5.8-4.6,9.3
		c-0.1,0.6-0.5,0.9-1,1.1c-0.6,0.2-1,0.1-1.4-0.2c-0.6-0.4-0.7-1-0.6-1.6c1-3.9,2.7-7.4,5.2-10.5C10,5.4,13,2.9,16.6,1.1
		C17.2,0.8,17.7,0.9,18.3,1.4z M11,18.3c-0.6-0.5-0.8-1.1-0.5-1.7c0.6-1.6,1.5-3.1,2.6-4.5c1.1-1.4,2.4-2.5,3.8-3.5
		c0.6-0.4,1.2-0.4,1.8,0.1c0.4,0.3,0.6,0.7,0.5,1.2c0,0.5-0.3,0.9-0.7,1.2c-1.1,0.8-2.2,1.8-3,2.9c-0.9,1.1-1.6,2.3-2.1,3.6
		c-0.2,0.5-0.6,0.8-1.1,0.9C11.8,18.7,11.4,18.6,11,18.3z M54.2,44.9c0.6,0.5,0.8,1.1,0.5,1.7c-0.6,1.6-1.5,3.1-2.6,4.5
		c-1.1,1.4-2.4,2.5-3.8,3.5c-0.6,0.4-1.2,0.4-1.8-0.1c-0.4-0.3-0.6-0.7-0.5-1.2c0-0.5,0.3-0.9,0.7-1.2c1.1-0.8,2.2-1.8,3-2.9
		c0.9-1.1,1.6-2.3,2.1-3.6c0.1-0.2,0.3-0.5,0.4-0.6c0.2-0.2,0.4-0.3,0.6-0.3c0.2,0,0.4,0,0.7,0C53.8,44.7,54,44.8,54.2,44.9z
		 M63.2,44.9c-1,3.9-2.7,7.4-5.2,10.5c-2.5,3.1-5.5,5.6-9.1,7.4c-0.6,0.3-1.1,0.2-1.7-0.2c-0.4-0.3-0.6-0.8-0.5-1.3
		c0.1-0.6,0.3-1,0.9-1.2c3.2-1.6,5.9-3.7,8.1-6.5c2.2-2.8,3.7-5.8,4.6-9.3c0.1-0.6,0.5-0.9,1-1.1c0.6-0.2,1-0.1,1.4,0.2
		C63.2,43.7,63.4,44.3,63.2,44.9z"/>
</g>
<g>
	<path d="M47.6,29.5c1.9,0.5,3.2,1.7,3.9,3.6c0.7,1.9,0.4,3.6-0.7,5.3l-7.4,10.8c-0.8,1.2-1.8,2.3-2.9,3.4l-9.9,9
		c-0.9,0.9-1.9,0.9-2.9,0.3L9.2,49.2c-0.7-0.5-1-1.1-1-1.9L7.7,26.7c0-1.6,0.5-3,1.6-4.2c1.1-1.2,2.4-1.8,4-1.8
		c1.3-0.1,2.4,0.3,3.4,1c1,0.7,1.7,1.6,2.2,2.6l7.9-11.6c1.2-1.7,2.8-2.5,4.8-2.5c2,0,3.6,0.9,4.7,2.6c1-0.8,2.2-1.3,3.4-1.2
		c1.2,0,2.3,0.3,3.2,0.9c0.9,0.6,1.6,1.5,2.1,2.6c0.5,1.2,0.6,2.4,0.2,3.7c2,0.5,3.4,1.6,4.1,3.5c0.7,1.9,0.5,3.7-0.7,5.4L47.6,29.5
		z M40.8,47.4l7.4-10.8c0.7-1,0.7-1.9,0.2-2.8c-0.5-0.9-1.2-1.4-2.3-1.5c-1-0.1-1.8,0.3-2.5,1.3l-4.3,6.3c-0.3,0.4-0.6,0.5-1.1,0.2
		l-0.6-0.4c-0.4-0.3-0.5-0.6-0.2-1.1L46.3,26c0.6-0.9,0.7-1.8,0.3-2.7c-0.4-0.9-1.1-1.4-2.2-1.5c-1-0.1-1.8,0.3-2.5,1.3l-8.7,12.7
		c-0.3,0.4-0.6,0.5-1.1,0.2l-0.6-0.4c-0.4-0.3-0.5-0.6-0.2-1.1L42,18.9c0.7-1,0.7-1.9,0.3-2.8S41,14.7,40,14.6
		c-1-0.1-1.8,0.3-2.5,1.2L26.9,31.4c-0.3,0.4-0.6,0.5-1.1,0.2l-0.6-0.4c-0.4-0.3-0.5-0.6-0.2-1.1l8.7-12.6c0.7-1,0.7-1.9,0.3-2.8
		c-0.5-0.9-1.2-1.4-2.2-1.5c-1-0.1-1.8,0.3-2.4,1.2l-11.6,17c-0.2,0.3-0.5,0.4-0.9,0.3c-0.4-0.1-0.6-0.3-0.6-0.8l-0.1-4.6
		c0-0.8-0.3-1.4-0.8-1.9c-0.5-0.5-1.2-0.7-1.9-0.7c-0.7,0-1.4,0.3-1.9,0.8c-0.5,0.6-0.8,1.2-0.8,2l0.5,20.3L28.9,59l9.5-8.7
		C39.3,49.4,40.1,48.5,40.8,47.4z"/>
</g>
</svg>
