<?xml version="1.0" encoding="utf-8"?>
<!-- Generator: Adobe Illustrator 21.1.0, SVG Export Plug-In . SVG Version: 6.00 Build 0)  -->
<!DOCTYPE svg PUBLIC "-//W3C//DTD SVG 1.1//EN" "http://www.w3.org/Graphics/SVG/1.1/DTD/svg11.dtd">
<svg version="1.1" id="Layer_1" xmlns="http://www.w3.org/2000/svg" xmlns:xlink="http://www.w3.org/1999/xlink" x="0px" y="0px"
	 viewBox="0 0 360 360" style="enable-background:new 0 0 360 360;" xml:space="preserve">
<style type="text/css">
	.st0{fill-rule:evenodd;clip-rule:evenodd;}
</style>
<path class="st0" d="M55.8,176.3L55.8,176.3c-1.6-1.9-4.1-2.7-7.7-2.7c-5.7,0-10.9,3.2-10.9,10.4c0,7.2,5.2,10.4,10.9,10.4
	c3.9,0,6.3-1,7.9-2.9H56v2.1h8.5v-26.3h-8.7V176.3L55.8,176.3z M51,188.4c-3.4,0-4.8-1.9-4.8-4.4c0-2.5,1.6-4.4,4.8-4.4
	c3.4,0,4.8,1.7,4.8,4.4C55.8,186.7,54.3,188.4,51,188.4L51,188.4z"/>
<path class="st0" d="M80.6,173.3c-8.6,0-13.6,3.8-13.6,10.5c0,7.1,5.2,10.6,14.4,10.6c4,0,7-0.6,9.3-1.8c2.2-1.1,3.7-2.8,4.4-4.8
	h-9.3c-0.9,1.2-2.3,1.7-4.5,1.7c-3.8,0-5.3-2.1-5.3-3.5h19.2C95.3,176.2,89,173.3,80.6,173.3L80.6,173.3z M75.9,181.4
	c0.5-2.5,2.2-3.4,5.2-3.4c3,0,5,1.3,5.2,3.4H75.9L75.9,181.4z"/>
<path class="st0" d="M106.2,177.8L106.2,177.8l-0.1-3.7h-8.5v19.5h8.7v-7.3c0-4.2,3.3-5.2,6.4-5.2c1.5,0,2.8,0.3,4.4,0.7v-8
	c-0.9-0.1-1.9-0.2-2.9-0.2C111.4,173.5,108.5,174.8,106.2,177.8L106.2,177.8z"/>
<path class="st0" d="M148,173.5c-3.5,0-5.8,1.5-7,3.2c-1-1.9-2.6-3.2-6.3-3.2c-3.6,0-5.8,1.4-7.1,3.2h-0.1v-2.7H119v19.5h8.7v-10.3
	c0-2.4,1.2-3.3,3-3.3c1.5,0,2.3,0.6,2.3,2.6v11h8.5v-10.3c0-2.4,1.2-3.3,3-3.3c1.5,0,2.3,0.6,2.3,2.6v11h8.7v-13.4
	C155.6,175.4,152.2,173.5,148,173.5L148,173.5z"/>
<path class="st0" d="M185.3,181.1c0-5.8-3.5-7.8-12.4-7.8c-4.6,0-7.8,0.4-9.9,1.4c-2.2,1-3.2,2.7-3.8,5.3h8.7
	c0.4-1.9,2.4-2.2,4.4-2.2c2.5,0,4.1,0.6,4.1,1.9c0,1.1-0.6,1.5-2.3,1.6l-7.4,0.4c-6.5,0.3-8.9,2.6-8.9,6.1c0,5,3.7,6.6,9.6,6.6
	c4.6,0,7.6-0.9,9.6-2.7c0,0.7,0.1,1.4,0.3,1.9h8.9c-0.4-0.6-0.8-1.5-0.8-3V181.1L185.3,181.1z M176.6,185.5c0,3.4-3.2,4.1-6.2,4.1
	c-2.2,0-3.2-0.9-3.2-2.2c0-1.2,0.8-1.8,2.4-1.9c3.1-0.3,5.6-0.5,7.1-0.8V185.5L176.6,185.5z"/>
<polygon class="st0" points="188.8,193.6 197.5,193.6 197.5,167.2 188.8,167.2 188.8,193.6 "/>
<path class="st0" d="M214.1,173.3c-9.9,0-14.2,3.4-14.2,10.5c0,7.2,4.3,10.6,14.2,10.6c9.9,0,14.2-3.4,14.2-10.6
	C228.2,176.6,223.9,173.3,214.1,173.3L214.1,173.3z M214.1,188.6c-3.5,0-5-1.6-5-4.8c0-3.1,1.5-4.7,5-4.7c3.5,0,5,1.7,5,4.7
	C219.1,186.9,217.6,188.6,214.1,188.6L214.1,188.6z"/>
<path class="st0" d="M249.1,176.3c-1.7-1.7-4.4-2.7-7.9-2.7c-6.5,0-11.6,3.3-11.6,9.4s4.1,9.4,11.6,9.4c3.1,0,5.8-0.5,7.6-2.1v1.7
	c0,2.7-1.2,4-4.8,4c-1.3,0-2.3-0.2-2.9-0.5c-0.6-0.3-0.9-0.8-1.1-1.4h-9.6c0.8,4.9,4.3,6.8,13.8,6.8c8.7,0,13.3-2.4,13.3-8.7v-18.1
	h-8.5V176.3L249.1,176.3z M243.8,187c-3.6,0-5-1.8-5-3.9c0-2,1.4-3.8,5-3.8c3.7,0,5,1.8,5,3.8C248.8,185.2,247.5,187,243.8,187
	L243.8,187z"/>
<polygon class="st0" points="261,172.1 269.8,172.1 269.8,167.2 261,167.2 261,172.1 "/>
<polygon class="st0" points="261,193.6 269.8,193.6 269.8,174.1 261,174.1 261,193.6 "/>
<path class="st0" d="M286.6,178.8c1.1,0,2.3,0.2,3.1,0.6c1,0.5,1.5,1.2,1.6,2.5h9.2c-0.9-6.5-5.8-8.6-14-8.6
	c-8,0-14.3,2.5-14.3,10.5c0,8.1,6.3,10.6,14.3,10.6c6,0,13.1-0.9,14-9h-9.2c-0.6,2.5-2.4,3.2-4.9,3.2c-3.5,0-5.2-1.9-5.2-4.9
	C281.4,181,282.7,178.8,286.6,178.8L286.6,178.8z"/>
<path class="st0" d="M329.2,181.1c0-5.8-3.5-7.8-12.4-7.8c-4.6,0-7.8,0.4-9.9,1.4c-2.2,1-3.2,2.7-3.8,5.3h8.7
	c0.4-1.9,2.4-2.2,4.4-2.2c2.5,0,4.1,0.6,4.1,1.9c0,1.1-0.6,1.5-2.3,1.6l-7.4,0.4c-6.5,0.3-8.9,2.6-8.9,6.1c0,5,3.7,6.6,9.6,6.6
	c4.6,0,7.6-0.9,9.6-2.7c0,0.7,0.1,1.4,0.3,1.9h8.9c-0.4-0.6-0.8-1.5-0.8-3V181.1L329.2,181.1z M320.5,185.5c0,3.4-3.3,4.1-6.2,4.1
	c-2.2,0-3.3-0.9-3.3-2.2c0-1.2,0.8-1.8,2.4-1.9c3.1-0.3,5.6-0.5,7.1-0.8V185.5L320.5,185.5z"/>
<path class="st0" d="M329.4,168.5c0-1-0.6-1.4-1.7-1.4h-1.8v4.9h0.7v-2.1h0.8l1.3,2.1h0.8l-1.4-2.2
	C328.9,169.7,329.4,169.3,329.4,168.5L329.4,168.5z M326.6,169.2v-1.5h1c0.5,0,1.1,0.1,1.1,0.7c0,0.8-0.6,0.8-1.2,0.8H326.6
	L326.6,169.2z"/>
<path class="st0" d="M327.5,165.2c-2.3,0-4.3,1.8-4.3,4.3c0,2.5,1.9,4.3,4.3,4.3c2.3,0,4.2-1.8,4.2-4.3
	C331.7,167.1,329.8,165.2,327.5,165.2L327.5,165.2z M327.5,173.1c-1.9,0-3.4-1.5-3.4-3.6c0-2,1.5-3.5,3.4-3.5c1.9,0,3.4,1.5,3.4,3.5
	C330.9,171.6,329.4,173.1,327.5,173.1L327.5,173.1z"/>
</svg>
