<?xml version="1.0" encoding="utf-8"?>
<!-- Generator: Adobe Illustrator 21.1.0, SVG Export Plug-In . SVG Version: 6.00 Build 0)  -->
<!DOCTYPE svg PUBLIC "-//W3C//DTD SVG 1.1//EN" "http://www.w3.org/Graphics/SVG/1.1/DTD/svg11.dtd">
<svg version="1.1" id="Layer_1" xmlns="http://www.w3.org/2000/svg" xmlns:xlink="http://www.w3.org/1999/xlink" x="0px" y="0px"
	 viewBox="0 0 360 360" style="enable-background:new 0 0 360 360;" xml:space="preserve">
<style type="text/css">
	.st0{fill-rule:evenodd;clip-rule:evenodd;}
</style>
<g>
	<polygon class="st0" points="228.3,206.4 236.8,206.4 236.8,150.6 228.3,150.6 228.3,206.4 	"/>
	<path class="st0" d="M56.7,174.4c0.3-12.5,24.1-25.5,39.8-12.2c2.6,2.2,7.9,7.8,7.9,12.2H56.7L56.7,174.4z M48,179.9
		c0,25,39.5,40,59.7,14.6c0.7-0.9,3.3-5,3.3-6.3c-14.6,0-3.2-1.7-16.9,8.4c-12.1,9-37.6,1.2-37.6-15.4h56.3
		C112.8,138.2,48,140,48,179.9L48,179.9z"/>
	<path class="st0" d="M134.3,162.2c0.4-2.4,2.8-5.5,8.3-5.5c10.4,0,9.1,7.9,10.2,7.9h8.1c0-19.3-35.3-21.4-35.3,1.3
		c0,17.8,28.3,11,28.3,24.9c0,13.2-22.2,12.8-22.2-0.9h-8.5c0,4.7,1.4,9,4,12.1c7.8,9.3,28.8,7.2,33.7-3.9
		c2.7-6.1,1.8-13.6-2.8-18.2C149.3,171,132.1,176.3,134.3,162.2L134.3,162.2z"/>
	<path d="M315.4,197.2c0.7,0,1.3,0.2,2,0.5c0.6,0.3,1.1,0.8,1.5,1.5c0.4,0.6,0.5,1.3,0.5,2c0,0.7-0.2,1.4-0.5,2
		c-0.4,0.6-0.8,1.1-1.5,1.5c-0.6,0.4-1.3,0.5-2,0.5c-0.7,0-1.4-0.2-2-0.5c-0.6-0.4-1.1-0.8-1.5-1.5c-0.4-0.6-0.5-1.3-0.5-2
		c0-0.7,0.2-1.4,0.5-2c0.4-0.6,0.9-1.1,1.5-1.5C314.1,197.3,314.8,197.2,315.4,197.2L315.4,197.2z M315.4,197.8
		c-0.6,0-1.1,0.1-1.6,0.4c-0.5,0.3-0.9,0.7-1.2,1.2c-0.3,0.5-0.5,1.1-0.5,1.7c0,0.6,0.1,1.1,0.4,1.7c0.3,0.5,0.7,0.9,1.2,1.2
		c0.5,0.3,1.1,0.4,1.7,0.4c0.6,0,1.1-0.1,1.7-0.4c0.5-0.3,0.9-0.7,1.2-1.2c0.3-0.5,0.4-1.1,0.4-1.7c0-0.6-0.1-1.1-0.4-1.7
		c-0.3-0.5-0.7-0.9-1.2-1.2C316.5,198,316,197.8,315.4,197.8L315.4,197.8z M313.7,203.4v-4.3h1.5c0.5,0,0.9,0,1.1,0.1
		c0.2,0.1,0.4,0.2,0.5,0.4c0.1,0.2,0.2,0.4,0.2,0.6c0,0.3-0.1,0.6-0.3,0.8c-0.2,0.2-0.5,0.4-0.9,0.4c0.2,0.1,0.3,0.1,0.4,0.2
		c0.2,0.2,0.4,0.5,0.6,0.9l0.5,0.8h-0.8l-0.4-0.7c-0.3-0.5-0.5-0.9-0.7-1c-0.1-0.1-0.3-0.1-0.6-0.1h-0.4v1.8H313.7L313.7,203.4z
		 M314.4,200.9h0.8c0.4,0,0.7-0.1,0.8-0.2c0.1-0.1,0.2-0.3,0.2-0.5c0-0.1,0-0.2-0.1-0.3c-0.1-0.1-0.2-0.2-0.3-0.2
		c-0.1-0.1-0.4-0.1-0.7-0.1h-0.8V200.9L314.4,200.9z"/>
	<path class="st0" d="M185.3,162.2c0.4-2.4,2.8-5.5,8.3-5.5c10.4,0,9.1,7.9,10.2,7.9h8.1c0-19.3-35.3-21.4-35.3,1.3
		c0,17.8,28.3,11,28.3,24.9c0,13.2-22.2,12.8-22.2-0.9h-8.5c0,4.7,1.4,9,4,12.1c7.8,9.3,28.8,7.2,33.7-3.9
		c2.7-6.1,1.8-13.6-2.8-18.2C200.3,171,183.1,176.3,185.3,162.2L185.3,162.2z"/>
	<path class="st0" d="M232.5,135.5c3.1,0,5.6,2.2,5.6,5c0,2.7-2.5,5-5.6,5c-3.1,0-5.6-2.2-5.6-5
		C226.9,137.8,229.4,135.5,232.5,135.5L232.5,135.5z"/>
	<path class="st0" d="M259.1,174.4c0.3-12.5,24.1-25.5,39.8-12.2c2.6,2.2,7.9,7.8,7.9,12.2H259.1L259.1,174.4z M250.4,179.9
		c0,25,39.5,40,59.7,14.6c0.7-0.9,3.3-5,3.3-6.3c-14.6,0-3.2-1.7-16.9,8.4c-12.1,9-37.6,1.2-37.6-15.4h56.3
		C315.3,138.2,250.4,140,250.4,179.9L250.4,179.9z"/>
</g>
</svg>
