<?xml version="1.0" encoding="utf-8"?>
<!-- Generator: Adobe Illustrator 21.1.0, SVG Export Plug-In . SVG Version: 6.00 Build 0)  -->
<!DOCTYPE svg PUBLIC "-//W3C//DTD SVG 1.1//EN" "http://www.w3.org/Graphics/SVG/1.1/DTD/svg11.dtd">
<svg version="1.1" id="Layer_1" xmlns="http://www.w3.org/2000/svg" xmlns:xlink="http://www.w3.org/1999/xlink" x="0px" y="0px"
	 viewBox="0 0 360 360" style="enable-background:new 0 0 360 360;" xml:space="preserve">
<style type="text/css">
	.st0{stroke:#FFFFFF;stroke-width:0.4361;stroke-miterlimit:10;}
	.st1{fill:#FFFFFF;stroke:#000000;stroke-miterlimit:10;}
</style>
<g>
	<polygon class="st0" points="86.2,245.8 102.9,245.8 119.7,125.7 181.6,245.8 186.2,245.8 247.1,126.6 264.3,245.8 281.3,245.8 
		256.5,78.8 253.7,78.8 184.2,215.9 113.4,78.8 110.7,78.8 	"/>
	<g>
		<path class="st1" d="M41.2,158.7h4.5l5.6,16.8l5.6-16.8h4.5l4,24.1H61l-2.6-15.2l-5.1,15.2h-4l-5.1-15.2l-2.6,15.2H37L41.2,158.7z
			"/>
		<path class="st1" d="M83.5,158.1c3.4,0,6.3,1.2,8.8,3.7c2.5,2.5,3.7,5.5,3.7,9c0,3.5-1.2,6.5-3.6,8.9c-2.4,2.4-5.4,3.7-8.8,3.7
			c-3.6,0-6.6-1.3-9-3.8c-2.4-2.5-3.6-5.5-3.6-8.9c0-2.3,0.6-4.4,1.7-6.4c1.1-1.9,2.6-3.5,4.6-4.6C79.1,158.6,81.2,158.1,83.5,158.1
			z M83.4,162.5c-2.2,0-4.1,0.8-5.6,2.3c-1.5,1.6-2.3,3.5-2.3,5.9c0,2.7,1,4.8,2.9,6.3c1.5,1.2,3.2,1.8,5.1,1.8c2.2,0,4-0.8,5.6-2.4
			c1.5-1.6,2.3-3.5,2.3-5.8c0-2.3-0.8-4.2-2.3-5.8C87.5,163.3,85.6,162.5,83.4,162.5z"/>
		<path class="st1" d="M103.6,158.7h4.9c2.7,0,4.6,0.2,5.7,0.7c1.1,0.5,2,1.3,2.7,2.4c0.7,1.1,1,2.4,1,3.9c0,1.6-0.4,2.9-1.1,4
			c-0.8,1.1-1.9,1.9-3.4,2.4l5.7,10.7h-5l-5.4-10.2h-0.4v10.2h-4.6V158.7z M108.2,168.1h1.4c1.5,0,2.5-0.2,3-0.6
			c0.6-0.4,0.8-1,0.8-1.9c0-0.5-0.1-1-0.4-1.4c-0.3-0.4-0.6-0.7-1.1-0.8c-0.5-0.2-1.3-0.3-2.5-0.3h-1.3V168.1z"/>
		<path class="st1" d="M137.2,158.1c3.4,0,6.3,1.2,8.8,3.7c2.5,2.5,3.7,5.5,3.7,9c0,3.5-1.2,6.5-3.6,8.9c-2.4,2.4-5.4,3.7-8.8,3.7
			c-3.6,0-6.6-1.3-9-3.8c-2.4-2.5-3.6-5.5-3.6-8.9c0-2.3,0.6-4.4,1.7-6.4c1.1-1.9,2.6-3.5,4.6-4.6
			C132.8,158.6,134.9,158.1,137.2,158.1z M137.1,162.5c-2.2,0-4.1,0.8-5.6,2.3c-1.5,1.6-2.3,3.5-2.3,5.9c0,2.7,1,4.8,2.9,6.3
			c1.5,1.2,3.2,1.8,5.1,1.8c2.2,0,4-0.8,5.6-2.4c1.5-1.6,2.3-3.5,2.3-5.8c0-2.3-0.8-4.2-2.3-5.8
			C141.2,163.3,139.3,162.5,137.1,162.5z"/>
		<path class="st1" d="M179.2,162.9l-3.2,3.1c-2.2-2.3-4.6-3.5-7.4-3.5c-2.3,0-4.2,0.8-5.8,2.4c-1.6,1.6-2.4,3.5-2.4,5.8
			c0,1.6,0.3,3,1,4.3c0.7,1.2,1.7,2.2,3,2.9c1.3,0.7,2.7,1.1,4.3,1.1c1.3,0,2.5-0.2,3.7-0.7c1.1-0.5,2.3-1.4,3.6-2.7l3.1,3.2
			c-1.8,1.7-3.5,2.9-5,3.6c-1.6,0.7-3.4,1-5.4,1c-3.7,0-6.8-1.2-9.2-3.6c-2.4-2.4-3.6-5.4-3.6-9.1c0-2.4,0.5-4.5,1.6-6.4
			c1.1-1.9,2.6-3.4,4.7-4.5c2-1.1,4.2-1.7,6.5-1.7c2,0,3.9,0.4,5.7,1.3C176.2,160.2,177.8,161.3,179.2,162.9z"/>
		<path class="st1" d="M208.3,162.9l-3.2,3.1c-2.2-2.3-4.6-3.5-7.4-3.5c-2.3,0-4.2,0.8-5.8,2.4c-1.6,1.6-2.4,3.5-2.4,5.8
			c0,1.6,0.3,3,1,4.3c0.7,1.2,1.7,2.2,3,2.9c1.3,0.7,2.7,1.1,4.3,1.1c1.3,0,2.5-0.2,3.7-0.7c1.1-0.5,2.3-1.4,3.6-2.7l3.1,3.2
			c-1.8,1.7-3.5,2.9-5,3.6c-1.6,0.7-3.4,1-5.4,1c-3.7,0-6.8-1.2-9.2-3.6c-2.4-2.4-3.6-5.4-3.6-9.1c0-2.4,0.5-4.5,1.6-6.4
			c1.1-1.9,2.6-3.4,4.7-4.5c2-1.1,4.2-1.7,6.5-1.7c2,0,3.9,0.4,5.7,1.3C205.4,160.2,207,161.3,208.3,162.9z"/>
		<path class="st1" d="M222.7,158.7h4.7l9.3,24.1h-4.8l-1.9-5h-9.8l-2,5h-4.8L222.7,158.7z M225.1,165.1l-3.2,8.3h6.5L225.1,165.1z"
			/>
		<path class="st1" d="M243.3,158.7h4.4l10.3,15.9v-15.9h4.6v24.1h-4.4L247.8,167v15.8h-4.6V158.7z"/>
		<path class="st1" d="M282.5,158.1c3.4,0,6.3,1.2,8.8,3.7c2.5,2.5,3.7,5.5,3.7,9c0,3.5-1.2,6.5-3.6,8.9c-2.4,2.4-5.4,3.7-8.8,3.7
			c-3.6,0-6.6-1.3-9-3.8c-2.4-2.5-3.6-5.5-3.6-8.9c0-2.3,0.6-4.4,1.7-6.4c1.1-1.9,2.6-3.5,4.6-4.6
			C278.1,158.6,280.2,158.1,282.5,158.1z M282.4,162.5c-2.2,0-4.1,0.8-5.6,2.3c-1.5,1.6-2.3,3.5-2.3,5.9c0,2.7,1,4.8,2.9,6.3
			c1.5,1.2,3.2,1.8,5.1,1.8c2.2,0,4-0.8,5.6-2.4c1.5-1.6,2.3-3.5,2.3-5.8c0-2.3-0.8-4.2-2.3-5.8
			C286.5,163.3,284.6,162.5,282.4,162.5z"/>
		<path class="st1" d="M302,158.7h4.6v24.1H302V158.7z"/>
		<path class="st1" d="M314.7,158.7h4.6v19.7h6.7v4.4h-11.3V158.7z"/>
	</g>
</g>
</svg>
