<?xml version="1.0" encoding="utf-8"?>
<!-- Generator: Adobe Illustrator 21.1.0, SVG Export Plug-In . SVG Version: 6.00 Build 0)  -->
<!DOCTYPE svg PUBLIC "-//W3C//DTD SVG 1.1//EN" "http://www.w3.org/Graphics/SVG/1.1/DTD/svg11.dtd">
<svg version="1.1" id="Layer_1" xmlns="http://www.w3.org/2000/svg" xmlns:xlink="http://www.w3.org/1999/xlink" x="0px" y="0px"
	 viewBox="0 0 360 360" style="enable-background:new 0 0 360 360;" xml:space="preserve">
<style type="text/css">
	.st0{fill-rule:evenodd;clip-rule:evenodd;}
</style>
<g>
	<path class="st0" d="M226.9,183.8c2.4,0,4.4-2,4.4-4.4c0-2.4-2-4.4-4.4-4.4c-2.4,0-4.4,2-4.4,4.4
		C222.5,181.8,224.5,183.8,226.9,183.8L226.9,183.8z"/>
	<path class="st0" d="M154.8,183.8c2.4,0,4.4-2,4.4-4.4c0-2.4-2-4.4-4.4-4.4c-2.4,0-4.4,2-4.4,4.4
		C150.4,181.8,152.3,183.8,154.8,183.8L154.8,183.8z"/>
	<path class="st0" d="M115.7,152.2c12.8,0,23.2,12.2,23.2,27.2c0,15-10.4,27.2-23.2,27.2c-12.8,0-23.2-12.2-23.2-27.2
		C92.5,164.4,102.9,152.2,115.7,152.2L115.7,152.2z M115.7,154.6c-7,0-12.6,5.6-12.6,12.6v24.3c0,7,5.6,12.6,12.6,12.6
		s12.6-5.6,12.6-12.6v-24.3C128.3,160.3,122.7,154.6,115.7,154.6L115.7,154.6z"/>
	<polygon class="st0" points="243.6,153.3 243.6,155.3 251,155.3 251,202.9 243.6,202.9 243.6,204.9 268.3,204.9 268.3,202.9 
		260.9,202.9 260.9,155.3 268.3,155.3 268.3,153.3 243.6,153.3 	"/>
	<path class="st0" d="M180.8,179.2l10.2,0c6.6,0,8.6-5.4,8.6-12c0-6.6-2-12-8.6-12h-10.2V179.2L180.8,179.2z M180.8,202.9h7.4v2
		h-24.6v-2h7.4v-47.5h-7.4v-2l31,0c7.7,0,15.7,6.2,15.7,14c0,7.7-7.9,14-15.7,14h-13.7V202.9L180.8,202.9z"/>
</g>
</svg>
