<?xml version="1.0" encoding="utf-8"?>
<!-- Generator: Adobe Illustrator 21.1.0, SVG Export Plug-In . SVG Version: 6.00 Build 0)  -->
<!DOCTYPE svg PUBLIC "-//W3C//DTD SVG 1.1//EN" "http://www.w3.org/Graphics/SVG/1.1/DTD/svg11.dtd">
<svg version="1.1" id="Layer_1" xmlns="http://www.w3.org/2000/svg" xmlns:xlink="http://www.w3.org/1999/xlink" x="0px" y="0px"
	 viewBox="0 0 360 360" style="enable-background:new 0 0 360 360;" xml:space="preserve">
<style type="text/css">
	.st0{fill-rule:evenodd;clip-rule:evenodd;}
</style>
<g>
	<path class="st0" d="M246.1,143.1l-0.1,0.2c-0.1,0.2-0.2,0.4-0.2,0.6c0,0.3,0.1,0.6,0.3,0.8l0.4,0.4c0.2,0.2,0.3,0.6,0.3,0.9l0,0.2
		l-0.1,0.6l-0.1,0.6c0,0.5-0.1,0.8-0.1,0.8c0,1.5,1.5,2.1,5,2.1c4.3,0,5.1,0.7,5.1,3.8c0,4.4-2.3,10.3-5.8,15.1
		c-1.7,2.3-2.1,3-2.1,3.8c0,0.4,0.2,0.6,0.6,0.6c2,0,5.4-1.7,10.3-5.3c7.5-5.5,11.4-7.4,16.8-8.2c1.5-0.2,1.7-0.4,1.7-1
		c0-0.9-0.2-1.4-1.3-4.5c-1.1-2.8-1.7-5.3-1.7-7.3c0-2.5,0.1-2.7,2.5-3.8c1.9-0.9,2.5-1.3,3.2-2.6c0.9-1.6,1.1-1.9,1.8-2.7
		c1.9-2.2,2.6-4,2.6-6.5l0-0.2l0-1.3l0-0.2c0-0.8,0.1-1.5,0.3-2.3l0.3-1.3c0.2-0.9,0.4-2,0.4-3c0-0.9-0.1-1.5-0.3-2.2l-0.3-1
		l-0.3-1.1l-0.2-1.3c-0.5-3.7-3.1-7.2-6.5-8.6c-1.3-0.5-1.4-0.6-2.5-1.4c-2.1-1.6-3.2-2-6-2l-1.4,0c-0.7,0-1.9-0.1-3-0.4l-1.3-0.3
		c-0.9-0.2-1.8-0.3-2.6-0.3c-1.2,0-1.8,0.1-3.5,0.6c-1.1,0.3-1.6,0.4-2.6,0.6c-2,0.3-2.8,0.6-5.5,2.1c-2.4,1.3-2.6,1.5-3.2,2.5
		c-0.2,0.3-0.4,0.6-0.5,0.7c-0.1,0.1-0.4,0.4-0.8,0.8c-1.1,1.1-1.5,2-1.5,3.6c0,2.4,1,4,3,5c0.4,0.2,0.5,0.4,0.5,0.7
		c0,0.4-0.2,1-0.9,2.8c-0.5,1.3-0.6,1.6-0.6,1.9c0,0.2,0.1,0.5,0.2,0.7l0.4,0.7c0.2,0.3,0.3,0.6,0.3,1c0,0.5-0.1,0.9-0.6,1.7
		l-0.9,1.6c-1.9,3.4-2.5,4.6-2.5,5.4c0,0.8,0.4,1.2,1.6,1.4c1.4,0.3,1.8,0.6,1.8,1.3c0,0.2-0.1,0.5-0.3,0.8
		c-0.3,0.5-0.4,0.7-0.4,0.9c0,0.3,0,0.3,0.4,0.8l0.2,0.3c0.1,0.1,0.1,0.1,0.1,0.1c0,0,0,0,0,0.1L246.1,143.1L246.1,143.1z"/>
	<path class="st0" d="M60.1,201.9c3.6,1.9,6.1,2.6,9.2,2.6c6.1,0,10.6-4.1,10.6-9.6c0-4-1.7-6-7-8.6l-2.8-1.4
		c-3.9-1.9-5.1-3.1-5.1-5c0-2.6,2.1-4.5,5-4.5c3,0,5.3,1.6,7.4,5.3l0.3,0l0.1-5.5c-3.4-1.4-5.5-1.9-8-1.9c-5.4,0-9.6,3.5-9.6,8
		c0,3.4,1.9,5.5,7.1,8.2l2.6,1.3c4.3,2.2,5.3,3.3,5.3,5.7c0,3-2.7,5.4-6.1,5.4c-4,0-7.2-2.5-8.4-6.7l-0.6,0L60.1,201.9L60.1,201.9z"
		/>
	<path class="st0" d="M100.1,180.7c-2.1-0.8-3.8-1.2-6-1.2c-7,0-12,5.1-12,12.4c0,7.5,4.6,12.6,11.3,12.6c2.6,0,4.4-0.6,6.7-2.2
		l0.6-3.3l-0.2,0c-1.8,2.1-3.7,3.1-5.9,3.1c-4.5,0-7.4-4.2-7.4-10.8c0-5.9,2.8-9.6,7-9.6c2.5,0,4.1,1.1,5.3,3.9h0.4V180.7
		L100.1,180.7z"/>
	<path class="st0" d="M119.1,204h6.4v-0.2c-1.1-0.9-1.4-1.8-1.4-4.5v-0.7v-8l0-1.3c-0.1-6.9-2.5-9.8-8.1-9.8c-2.8,0-5.2,1-7.7,3.3
		v-21.2H102v0.2c1,1,1.3,1.9,1.3,4.5v0.7v31.7v0.6c0,2.7-0.3,3.7-1.4,4.6v0.2h7.9v-0.2c-1.1-0.9-1.4-1.9-1.4-4.5v-0.7v-8.8
		c0-5.1,1.9-7.6,5.9-7.6c3.8,0,5,1.8,5,7.5V204L119.1,204z"/>
	<path class="st0" d="M154.5,180.3c1.1,0.3,1.6,1,1.6,2.1c0,0.6-0.3,2-0.7,3.2l-4.1,12.3l-5.3-17.8h-2.6l-5.7,17.8l-4-13.4l-0.2-0.6
		l-0.2-0.8c-0.1-0.4-0.2-0.8-0.2-1.2c0-0.8,0.2-1.3,0.9-1.7v-0.2h-8.1v0.2c1.4,0.8,2.2,2.4,3.8,7.9l4.8,15.9h3.7l5.2-16.1l4.8,16.1
		h3.6l6.2-19.3c0.9-2.8,1.6-3.7,3.7-4.4v-0.2h-7.3V180.3L154.5,180.3z"/>
	<path class="st0" d="M198.7,180.2l-0.9,4.9l0.3,0c1.2-1.9,2.8-2.6,6.2-2.7l4.2-0.1L195.3,204h19.2l0.7-5.6h-0.3
		c-1.7,2.7-3,3.3-6.7,3.3H207h-4.8l13-21.5H198.7L198.7,180.2z"/>
	<path class="st0" d="M223.5,189.6v-28.1h-6.3v0.2c1,0.9,1.3,1.9,1.3,4.5v0.7v31.7v0.6c0,2.8-0.3,3.7-1.4,4.6v0.2h7.9v-0.2
		c-1.1-1-1.4-1.9-1.4-4.5v-0.7v-7.8l9.8,13.2h6.8v-0.2c-2.5-2.7-4.2-4.7-6.5-7.7c-1-1.3-1.9-2.5-2.7-3.6c-0.2-0.3-0.9-1.3-2.2-3
		l-0.8-1.1l9.7-8.3v-0.2h-7.8v0.2c0.5,0.2,0.7,0.6,0.7,1.3c0,1.7-1.1,3-5.3,6.7L223.5,189.6L223.5,189.6z"/>
	<path class="st0" d="M294.5,182.4l0,16.2l0,0.4c0,3-0.2,3.8-1.4,4.8v0.2h7.8v-0.2c-1.1-0.9-1.4-1.8-1.4-4.5v-0.7l0-16.2h3.8
		l0.5-2.2h-4.3v-6.7v-1c0-2.6,0.9-4,2.5-4c0.9,0,1.5,0.4,2,1.3h0.1l0.8-3.1c-0.6-0.2-1.2-0.2-2.1-0.2c-6,0-8.3,3.2-8.3,11.5v2.2
		h-1.6l-0.7,2.2L294.5,182.4L294.5,182.4z"/>
	<path class="st0" d="M189.8,183.2l0-3.1h-6.2v0.2c1,1,1.3,1.8,1.3,4.5v0.7v13.2v0.6c0,2.8-0.3,3.7-1.4,4.6v0.2h7.8v-0.2
		c-1.1-1-1.4-1.9-1.4-4.5v-0.7l0-10v-0.8c0-2.6,1.5-4.4,3.7-4.4c1.1,0,1.9,0.4,2.6,1.3h0.2l0.3-5
		C193.7,179.9,191.9,180.8,189.8,183.2L189.8,183.2z"/>
	<path class="st0" d="M178.4,199.2v-0.6v-9.1l0-1.6c-0.1-6.3-2-8.5-7.4-8.5c-2.2,0-4.4,0.5-7.3,1.8l-0.9,4.3h0.6
		c1.8-2.7,3.9-4.1,6.2-4.1c2.2,0,3.7,1.6,3.7,3.7c0,2.2-1.4,3.5-5.6,5.3c-6.1,2.6-7.9,4.4-7.9,7.9c0,3.5,2.6,6,6.2,6
		c2.3,0,5.2-1.2,7.6-3v2.7h6.2v-0.2C178.7,203,178.4,201.9,178.4,199.2L178.4,199.2z M173.5,195.2v1.1c0,3.3-1.8,5.2-4.8,5.2
		c-2.2,0-3.9-1.7-3.9-4c0-2.4,1.1-3.7,5-5.8c1.8-1,2.4-1.4,3.6-2.3V195.2L173.5,195.2z"/>
	<path class="st0" d="M252,179.3c-7.4,0-13,5.5-13,12.7c0,7.2,5.7,12.8,12.9,12.8c7.2,0,12.7-5.5,12.7-12.8
		C264.6,184.9,259,179.3,252,179.3L252,179.3z M252.2,202.8c-4.5,0-7.6-4.8-7.6-11.7c0-5.9,2.8-9.8,6.9-9.8c4.5,0,7.4,4.7,7.4,11.9
		C259,199.1,256.3,202.8,252.2,202.8L252.2,202.8z"/>
	<path class="st0" d="M280.3,179.5c-3.2,0-5.5,1.1-7.5,3.5v-3h-6.2v0.2c1,0.8,1.3,2,1.3,4.5v0.7V216v0.6c0,2.8-0.3,3.6-1.4,4.6v0.2
		h7.8v-0.2c-1.1-0.9-1.4-1.8-1.4-4.5V216l0-13c1.8,1.1,3.4,1.6,5.5,1.6c6.7,0,12-6.1,12-13.7C290.3,184.2,286.1,179.5,280.3,179.5
		L280.3,179.5z M278,202.5c-3.4,0-5.1-1.8-5.2-5.5l0-1.4l0-0.4v-5.2v-0.7c0-4.8,1.8-7.1,5.4-7.1c4.1,0,6.8,4.1,6.8,10.2
		C285,198.5,282.3,202.5,278,202.5L278,202.5z"/>
	<path class="st0" d="M61.7,232.5c0-2.8,0-3.3,0-3.9c0-0.6-0.2-0.9-0.8-1.1c-0.1,0-0.5-0.1-0.7-0.1c-0.2,0-0.3,0-0.3-0.2
		c0-0.1,0.1-0.2,0.4-0.2c1,0,2.2,0.1,2.7,0.1c0.8,0,1.8-0.1,2.7-0.1c2.3,0,3.2,0.8,3.5,1.1c0.4,0.4,0.9,1.2,0.9,2.2
		c0,2.6-1.9,4.5-4.6,4.5c-0.1,0-0.3,0-0.4,0c-0.1,0-0.2,0-0.2-0.2c0-0.1,0.1-0.2,0.5-0.2c1,0,2.5-1.2,2.5-3.1c0-0.6-0.1-1.9-1.1-2.8
		c-0.7-0.6-1.4-0.7-1.9-0.7c-0.3,0-0.6,0-0.7,0.1c-0.1,0-0.1,0.1-0.1,0.4v7.4c0,1.7,0,3.2,0.1,4c0.1,0.5,0.2,0.9,0.7,1
		c0.3,0,0.7,0.1,0.9,0.1c0.2,0,0.3,0.1,0.3,0.1c0,0.1-0.1,0.2-0.4,0.2c-1.2,0-2.4-0.1-2.9-0.1c-0.4,0-1.6,0.1-2.3,0.1
		c-0.2,0-0.4-0.1-0.4-0.2c0-0.1,0.1-0.1,0.3-0.1c0.3,0,0.5,0,0.7-0.1c0.4-0.1,0.5-0.5,0.5-1c0.1-0.8,0.1-2.3,0.1-4V232.5L61.7,232.5
		z"/>
	<path class="st0" d="M82.1,232.5c0-2.8,0-3.3,0-3.9c0-0.6-0.2-0.9-0.8-1.1c-0.1,0-0.5-0.1-0.7-0.1c-0.2,0-0.3,0-0.3-0.2
		c0-0.1,0.1-0.2,0.4-0.2c1,0,2.2,0.1,2.5,0.1c0.6,0,2-0.1,2.6-0.1c1.2,0,2.4,0.1,3.4,0.8c0.5,0.4,1.3,1.3,1.3,2.5
		c0,1.4-0.6,2.6-2.5,4.2c1.7,2.1,2.9,3.7,4,4.9c1,1.1,1.8,1.2,2.1,1.3c0.2,0,0.4,0.1,0.5,0.1c0.1,0,0.2,0.1,0.2,0.1
		c0,0.1-0.1,0.2-0.4,0.2h-1.8c-1,0-1.5-0.1-2-0.4c-0.8-0.4-1.5-1.3-2.5-2.7c-0.7-1-1.6-2.3-1.8-2.6c-0.1-0.1-0.2-0.1-0.3-0.1l-1.6,0
		c-0.1,0-0.1,0-0.1,0.1v0.3c0,1.7,0,3.2,0.1,4c0.1,0.5,0.2,0.9,0.7,1c0.3,0,0.7,0.1,0.9,0.1c0.1,0,0.2,0.1,0.2,0.1
		c0,0.1-0.1,0.2-0.4,0.2c-1.1,0-2.5-0.1-2.7-0.1c-0.4,0-1.5,0.1-2.3,0.1c-0.2,0-0.4-0.1-0.4-0.2c0-0.1,0.1-0.1,0.3-0.1
		c0.3,0,0.5,0,0.7-0.1c0.4-0.1,0.5-0.5,0.5-1c0.1-0.8,0.1-2.3,0.1-4V232.5L82.1,232.5z M84.3,234c0,0.2,0,0.3,0.2,0.3
		c0.4,0.1,0.9,0.2,1.4,0.2c0.7,0,1-0.1,1.3-0.3c0.6-0.4,1.1-1.3,1.1-2.8c0-2.6-1.7-3.4-2.8-3.4c-0.5,0-0.8,0-1,0.1
		c-0.1,0-0.2,0.1-0.2,0.3V234L84.3,234z"/>
	<path class="st0" d="M102.2,234.2c0-3.2,2.1-7.3,7.7-7.3c4.6,0,7.5,2.7,7.5,7c0,4.3-3,7.6-7.7,7.6
		C104.3,241.5,102.2,237.5,102.2,234.2L102.2,234.2z M114.8,234.5c0-4.2-2.4-6.8-5.4-6.8c-2.1,0-4.6,1.2-4.6,5.8
		c0,3.9,2.1,6.9,5.7,6.9C111.8,240.5,114.8,239.9,114.8,234.5L114.8,234.5z"/>
	<path class="st0" d="M131.8,235.8c0,1.8,0,3.2,0.1,4c0.1,0.5,0.2,0.9,0.7,1c0.3,0,0.7,0.1,0.9,0.1c0.2,0,0.3,0.1,0.3,0.1
		c0,0.1-0.1,0.2-0.4,0.2c-1.2,0-2.3-0.1-2.8-0.1c-0.5,0-1.7,0.1-2.4,0.1c-0.3,0-0.4,0-0.4-0.2c0-0.1,0.1-0.1,0.3-0.1
		c0.3,0,0.5,0,0.7-0.1c0.4-0.1,0.5-0.5,0.5-1c0.1-0.8,0.1-2.2,0.1-4v-3.3c0-2.8,0-3.3,0-3.9c0-0.6-0.2-0.9-0.8-1.1
		c-0.1,0-0.5-0.1-0.7-0.1c-0.2,0-0.3,0-0.3-0.1c0-0.1,0.1-0.2,0.4-0.2c1,0,2.1,0.1,2.7,0.1c0.7,0,4.5,0,4.9,0c0.4,0,0.6,0,0.8-0.1
		c0.1,0,0.2-0.1,0.3-0.1c0.1,0,0.1,0.1,0.1,0.2c0,0.1-0.1,0.4-0.1,0.8c0,0.2-0.1,1.3-0.1,1.5c0,0.1-0.1,0.3-0.2,0.3
		c-0.1,0-0.2-0.1-0.2-0.3c0-0.1,0-0.4-0.1-0.7c-0.1-0.3-0.5-0.5-1.2-0.6l-2.9-0.1c-0.1,0-0.2,0.1-0.2,0.3v4.7c0,0.1,0,0.2,0.1,0.2
		l2.4,0c0.3,0,0.6,0,0.8,0c0.4,0,0.6-0.1,0.8-0.3c0.1-0.1,0.1-0.2,0.2-0.2c0.1,0,0.1,0.1,0.1,0.2c0,0.1-0.1,0.6-0.1,1.2
		c0,0.4-0.1,1.2-0.1,1.4c0,0.2,0,0.4-0.2,0.4c-0.1,0-0.1-0.1-0.1-0.3c0-0.1,0-0.4-0.1-0.6c-0.1-0.3-0.4-0.6-0.9-0.7
		c-0.5-0.1-2.4-0.1-2.8-0.1c-0.1,0-0.1,0-0.1,0.2V235.8L131.8,235.8z"/>
	<path class="st0" d="M149.2,232.5c0-2.8,0-3.3,0-3.9c0-0.6-0.2-0.9-0.8-1.1c-0.1,0-0.5-0.1-0.7-0.1c-0.2,0-0.3,0-0.3-0.2
		c0-0.1,0.1-0.2,0.4-0.2c1,0,2.2,0.1,2.7,0.1c0.6,0,4.3,0,4.6,0c0.4,0,0.7-0.1,0.8-0.1c0.1,0,0.2-0.1,0.3-0.1c0.1,0,0.1,0.1,0.1,0.2
		c0,0.1-0.1,0.4-0.1,1.2c0,0.2-0.1,1-0.1,1.2c0,0.1-0.1,0.2-0.2,0.2c-0.1,0-0.2-0.1-0.2-0.3c0-0.1,0-0.4-0.1-0.7
		c-0.1-0.3-0.3-0.6-1.2-0.7c-0.3,0-2.3-0.1-2.6-0.1c-0.1,0-0.1,0.1-0.1,0.2v4.7c0,0.1,0,0.2,0.1,0.2c0.4,0,2.5,0,3,0
		c0.4,0,0.7-0.1,0.9-0.3c0.1-0.1,0.2-0.2,0.3-0.2c0.1,0,0.1,0,0.1,0.1c0,0.1-0.1,0.4-0.1,1.4c0,0.4-0.1,1.1-0.1,1.2
		c0,0.1,0,0.4-0.2,0.4c-0.1,0-0.2-0.1-0.2-0.2c0-0.2,0-0.4-0.1-0.7c-0.1-0.4-0.4-0.7-1-0.7c-0.4,0-2.2-0.1-2.6-0.1
		c-0.1,0-0.1,0.1-0.1,0.2v1.5c0,0.6,0,2.3,0,2.9c0,1.3,0.3,1.6,2.2,1.6c0.5,0,1.3,0,1.7-0.2c0.5-0.2,0.7-0.6,0.8-1.4
		c0-0.2,0.1-0.3,0.2-0.3c0.1,0,0.1,0.1,0.1,0.3c0,0.4-0.1,1.7-0.2,2.1c-0.1,0.5-0.3,0.5-1,0.5c-2.8,0-4.1-0.1-5.2-0.1
		c-0.4,0-1.6,0.1-2.3,0.1c-0.2,0-0.4-0.1-0.4-0.2c0-0.1,0.1-0.1,0.3-0.1c0.3,0,0.5,0,0.7-0.1c0.4-0.1,0.5-0.5,0.5-1
		c0.1-0.8,0.1-2.3,0.1-4V232.5L149.2,232.5z"/>
	<path class="st0" d="M168.1,241c-0.3-0.1-0.4-0.2-0.4-0.6c0-1,0.1-2.1,0.1-2.4c0-0.3,0.1-0.5,0.2-0.5c0.2,0,0.2,0.2,0.2,0.3
		c0,0.2,0.1,0.6,0.2,0.9c0.4,1.4,1.5,1.9,2.7,1.9c1.7,0,2.5-1.1,2.5-2.1c0-0.9-0.3-1.8-1.8-3l-0.9-0.7c-2-1.6-2.8-2.9-2.8-4.4
		c0-2,1.7-3.5,4.3-3.5c1.2,0,2,0.2,2.5,0.3c0.2,0,0.3,0.1,0.3,0.2c0,0.2-0.1,0.8-0.1,2.2c0,0.4-0.1,0.6-0.2,0.6
		c-0.1,0-0.2-0.1-0.2-0.3c0-0.2-0.1-0.7-0.5-1.2c-0.3-0.4-0.8-0.9-2-0.9c-1.4,0-2.2,0.8-2.2,1.9c0,0.9,0.4,1.5,2,2.7l0.5,0.4
		c2.2,1.7,3,3,3,4.7c0,1.1-0.4,2.4-1.7,3.2c-0.9,0.6-2,0.8-3,0.8C169.8,241.5,168.9,241.3,168.1,241L168.1,241z"/>
	<path class="st0" d="M187.2,241c-0.3-0.1-0.4-0.2-0.4-0.6c0-1,0.1-2.1,0.1-2.4c0-0.3,0.1-0.5,0.2-0.5c0.2,0,0.2,0.2,0.2,0.3
		c0,0.2,0.1,0.6,0.2,0.9c0.4,1.4,1.5,1.9,2.7,1.9c1.7,0,2.5-1.1,2.5-2.1c0-0.9-0.3-1.8-1.8-3l-0.9-0.7c-2-1.6-2.8-2.9-2.8-4.4
		c0-2,1.7-3.5,4.3-3.5c1.2,0,2,0.2,2.5,0.3c0.2,0,0.3,0.1,0.3,0.2c0,0.2-0.1,0.8-0.1,2.2c0,0.4-0.1,0.6-0.2,0.6
		c-0.1,0-0.2-0.1-0.2-0.3c0-0.2-0.1-0.7-0.5-1.2c-0.3-0.4-0.8-0.9-2-0.9c-1.4,0-2.2,0.8-2.2,1.9c0,0.9,0.4,1.5,2,2.7l0.5,0.4
		c2.2,1.7,3.1,3,3.1,4.7c0,1.1-0.4,2.4-1.7,3.2c-0.9,0.6-2,0.8-3,0.8C188.8,241.5,188,241.3,187.2,241L187.2,241z"/>
	<path class="st0" d="M207.2,232.5c0-2.8,0-3.3,0-3.9c0-0.6-0.2-0.9-0.6-1c-0.2-0.1-0.4-0.1-0.7-0.1c-0.2,0-0.3,0-0.3-0.2
		c0-0.1,0.1-0.1,0.4-0.1c0.7,0,1.9,0.1,2.4,0.1c0.5,0,1.6-0.1,2.3-0.1c0.2,0,0.4,0,0.4,0.1c0,0.1-0.1,0.2-0.3,0.2
		c-0.2,0-0.3,0-0.6,0.1c-0.5,0.1-0.7,0.4-0.7,1.1c0,0.6,0,1.1,0,3.9v3.3c0,1.8,0,3.3,0.1,4.1c0.1,0.5,0.2,0.8,0.7,0.9
		c0.3,0,0.7,0.1,0.9,0.1c0.2,0,0.3,0.1,0.3,0.1c0,0.1-0.1,0.2-0.4,0.2c-1.2,0-2.4-0.1-2.9-0.1c-0.4,0-1.6,0.1-2.3,0.1
		c-0.2,0-0.4-0.1-0.4-0.2c0-0.1,0.1-0.1,0.3-0.1c0.3,0,0.5,0,0.7-0.1c0.4-0.1,0.5-0.4,0.5-0.9c0.1-0.8,0.1-2.3,0.1-4.1V232.5
		L207.2,232.5z"/>
	<path class="st0" d="M221.6,234.2c0-3.2,2.1-7.3,7.7-7.3c4.6,0,7.5,2.7,7.5,7c0,4.3-3,7.6-7.7,7.6
		C223.7,241.5,221.6,237.5,221.6,234.2L221.6,234.2z M234.2,234.5c0-4.2-2.4-6.8-5.5-6.8c-2.1,0-4.6,1.2-4.6,5.8
		c0,3.9,2.1,6.9,5.7,6.9C231.2,240.5,234.2,239.9,234.2,234.5L234.2,234.5z"/>
	<path class="st0" d="M250,238.7c0,1.5,0.3,1.9,0.7,2.1c0.3,0.1,0.7,0.1,1,0.1c0.2,0,0.3,0,0.3,0.1c0,0.1-0.2,0.2-0.4,0.2
		c-1.2,0-2-0.1-2.3-0.1c-0.2,0-1,0.1-2,0.1c-0.2,0-0.4,0-0.4-0.2c0-0.1,0.1-0.1,0.3-0.1c0.2,0,0.6,0,0.8-0.1
		c0.5-0.1,0.6-0.7,0.6-2.3l0.2-11c0-0.4,0.1-0.6,0.2-0.6c0.2,0,0.4,0.2,0.7,0.6c0.2,0.2,3.1,3.3,5.8,6c1.3,1.3,3.8,3.9,4.1,4.2h0.1
		l-0.2-8.4c0-1.1-0.2-1.5-0.6-1.7c-0.3-0.1-0.7-0.1-1-0.1c-0.2,0-0.3-0.1-0.3-0.2c0-0.1,0.2-0.2,0.5-0.2c1,0,1.9,0.1,2.3,0.1
		c0.2,0,0.9-0.1,1.8-0.1c0.2,0,0.4,0,0.4,0.2c0,0.1-0.1,0.2-0.3,0.2c-0.2,0-0.3,0-0.6,0.1c-0.5,0.1-0.7,0.5-0.7,1.6l-0.2,11.7
		c0,0.4-0.1,0.6-0.2,0.6c-0.2,0-0.4-0.2-0.6-0.4c-1.2-1.1-3.6-3.6-5.5-5.5c-2-2-4.1-4.3-4.4-4.7h-0.1L250,238.7L250,238.7z"/>
	<path class="st0" d="M275.5,236.4c-0.1,0-0.1,0-0.2,0.1l-1,2.7c-0.2,0.5-0.3,0.9-0.3,1.1c0,0.3,0.2,0.6,0.7,0.6h0.3
		c0.2,0,0.3,0,0.3,0.1c0,0.1-0.1,0.2-0.3,0.2c-0.6,0-1.4-0.1-2-0.1c-0.2,0-1.2,0.1-2.2,0.1c-0.2,0-0.4,0-0.4-0.2
		c0-0.1,0.1-0.1,0.2-0.1c0.2,0,0.4,0,0.6,0c0.9-0.1,1.2-0.7,1.6-1.7l4.7-11.7c0.2-0.5,0.3-0.7,0.5-0.7c0.2,0,0.3,0.2,0.5,0.6
		c0.4,1,3.4,8.6,4.6,11.4c0.7,1.7,1.2,1.9,1.6,2c0.3,0.1,0.6,0.1,0.8,0.1c0.1,0,0.2,0,0.2,0.1c0,0.1-0.2,0.2-0.9,0.2
		c-0.7,0-2,0-3.5,0c-0.3,0-0.6,0-0.6-0.1c0-0.1,0.1-0.1,0.3-0.2c0.1,0,0.3-0.2,0.2-0.4l-1.5-3.9c0-0.1-0.1-0.1-0.2-0.1H275.5
		L275.5,236.4z M279.3,235.4c0.1,0,0.1-0.1,0.1-0.1l-1.7-4.6c0-0.1,0-0.2-0.1-0.2c-0.1,0-0.1,0.1-0.1,0.2l-1.7,4.6
		c0,0.1,0,0.1,0.1,0.1H279.3L279.3,235.4z"/>
	<path class="st0" d="M298.3,235.8c0,2.4,0,3.7,0.4,4c0.3,0.3,0.8,0.4,2.3,0.4c1,0,1.7,0,2.2-0.5c0.2-0.2,0.4-0.8,0.5-1.1
		c0-0.2,0.1-0.3,0.2-0.3c0.1,0,0.1,0.1,0.1,0.3c0,0.2-0.1,1.6-0.3,2.1c-0.1,0.4-0.2,0.5-1.2,0.5c-2.7,0-3.9-0.1-5.4-0.1
		c-0.4,0-1.6,0.1-2.3,0.1c-0.2,0-0.4-0.1-0.4-0.2c0-0.1,0.1-0.1,0.3-0.1c0.3,0,0.5,0,0.7-0.1c0.4-0.1,0.5-0.5,0.5-1
		c0.1-0.8,0.1-2.3,0.1-4v-3.3c0-2.8,0-3.3,0-3.9c0-0.6-0.2-0.9-0.8-1.1c-0.1,0-0.4-0.1-0.6-0.1c-0.2,0-0.3,0-0.3-0.2
		c0-0.1,0.1-0.2,0.4-0.2c0.9,0,2,0.1,2.5,0.1c0.4,0,1.8-0.1,2.5-0.1c0.3,0,0.4,0,0.4,0.2c0,0.1-0.1,0.2-0.3,0.2
		c-0.2,0-0.5,0-0.7,0.1c-0.5,0.1-0.7,0.4-0.7,1.1c0,0.6,0,1.1,0,3.9V235.8L298.3,235.8z"/>
</g>
</svg>
