<?xml version="1.0" encoding="utf-8"?>
<!-- Generator: Adobe Illustrator 21.1.0, SVG Export Plug-In . SVG Version: 6.00 Build 0)  -->
<!DOCTYPE svg PUBLIC "-//W3C//DTD SVG 1.1//EN" "http://www.w3.org/Graphics/SVG/1.1/DTD/svg11.dtd">
<svg version="1.1" id="Layer_1" xmlns="http://www.w3.org/2000/svg" xmlns:xlink="http://www.w3.org/1999/xlink" x="0px" y="0px"
	 viewBox="0 0 247.6 63.2" style="enable-background:new 0 0 247.6 63.2;" xml:space="preserve">
<style type="text/css">
	.Arched_x0020_Green{fill:url(#SVGID_1_);stroke:#FFFFFF;stroke-width:0.25;stroke-miterlimit:1;}
	.st0{fill:#FFFFFF;}
</style>
<linearGradient id="SVGID_1_" gradientUnits="userSpaceOnUse" x1="-2.4034" y1="102.3333" x2="-1.6963" y2="101.6262">
	<stop  offset="0" style="stop-color:#20AC4B"/>
	<stop  offset="0.9831" style="stop-color:#19361A"/>
</linearGradient>
<g>
	<g>
		<g>
			<path class="st0" d="M84.5,23h-5.7v-4.9h5.7V6.2h5.7v11.9h10.8V23H90.3v21.9c0,10.1,6.4,11.4,9.7,11.4c1.2,0,2-0.2,2-0.2v5.2
				c0,0-1,0.2-2.5,0.2c-5,0-15-1.6-15-16V23z"/>
			<path class="st0" d="M113.1,25.1c0-1.2-0.7-1.9-1.9-1.9h-3.6v-5.1h6.1c3.7,0,5.2,1.5,5.2,5.2v30.9c0,1.3,0.7,1.9,1.9,1.9h3.6v5.1
				h-6.1c-3.7,0-5.2-1.5-5.2-5.2V25.1z M112.9,1h5.7v7.4h-5.7V1z"/>
			<path class="st0" d="M156.5,34.7h2.4v-0.5c0-9-3.3-12.2-11.1-12.2c-2.1,0-8.4,0.6-8.4,3.8v2.7h-5.6v-4.1c0-6,10.3-7.3,14-7.3
				c13.6,0,16.9,7.3,16.9,16.5v20.6c0,1.3,0.7,1.9,1.9,1.9h3.6v5.1h-5.9c-3.7,0-5.1-1.6-5.1-5.1c0-1.9,0.1-3.2,0.1-3.2h-0.2
				c0.1,0-3.5,9.3-14.3,9.3c-7.2,0-14.6-4.2-14.6-12.8C130.1,35.2,149,34.7,156.5,34.7z M145.7,57.3c8.2,0,13.2-8.6,13.2-16v-2h-2.5
				c-6.8,0-20.3,0.2-20.3,9.8C136.1,53.2,139.3,57.3,145.7,57.3z"/>
			<path class="st0" d="M179.4,25.1c0-1.2-0.7-1.9-1.9-1.9H174v-5.1h6c3.6,0,5.2,1.5,5.2,4.9v2.9c0,1.8-0.2,3.3-0.2,3.3h0.2
				c2.1-6.5,6.9-11.5,13.6-11.5c1.2,0,2.3,0.3,2.3,0.3v5.7c0,0-1-0.2-2.1-0.2c-6.1,0-10.6,4.8-12.5,11.1c-0.9,2.7-1.2,5.7-1.2,8.4
				v18.2h-5.8V25.1z"/>
			<path class="st0" d="M230,34.7h2.4v-0.5c0-9-3.3-12.2-11.1-12.2c-2.1,0-8.4,0.6-8.4,3.8v2.7h-5.6v-4.1c0-6,10.3-7.3,14-7.3
				c13.6,0,16.9,7.3,16.9,16.5v20.6c0,1.3,0.7,1.9,1.9,1.9h3.6v5.1h-5.9c-3.7,0-5.1-1.6-5.1-5.1c0-1.9,0.1-3.2,0.1-3.2h-0.2
				c0.1,0-3.5,9.3-14.3,9.3c-7.2,0-14.6-4.2-14.6-12.8C203.6,35.2,222.5,34.7,230,34.7z M219.2,57.3c8.2,0,13.2-8.6,13.2-16v-2h-2.5
				c-6.8,0-20.3,0.2-20.3,9.8C209.6,53.2,212.8,57.3,219.2,57.3z"/>
		</g>
		<g>
			<path class="st0" d="M31.4,59.2l-5.2-46.5c0,0-1.1-6.8,4.9-6.8c6,0,5.2,6.6,5.2,6.6L31.4,59.2z"/>
			<path class="st0" d="M24.8,59.6l-11-40c0,0-1.9-5.8,3.3-6.2c5.2-0.4,5.4,5.4,5.4,5.4L24.8,59.6z"/>
			<path class="st0" d="M16.7,59.4L4.4,27.9c0,0-2-4.6,2.1-5.1c4.1-0.5,4.8,4.1,4.8,4.1L16.7,59.4z"/>
			<path class="st0" d="M38,59.6l11.1-40c0,0,1.9-5.8-3.3-6.2c-5.2-0.4-5.4,5.4-5.4,5.4L38,59.6z"/>
			<path class="st0" d="M46.1,59.4l12.3-31.5c0,0,2-4.6-2.1-5.1c-4.1-0.5-4.8,4.1-4.8,4.1L46.1,59.4z"/>
		</g>
	</g>
</g>
</svg>
