<?xml version="1.0" encoding="utf-8"?>
<!-- Generator: Adobe Illustrator 21.1.0, SVG Export Plug-In . SVG Version: 6.00 Build 0)  -->
<!DOCTYPE svg PUBLIC "-//W3C//DTD SVG 1.1//EN" "http://www.w3.org/Graphics/SVG/1.1/DTD/svg11.dtd">
<svg version="1.1" id="Layer_1" xmlns="http://www.w3.org/2000/svg" xmlns:xlink="http://www.w3.org/1999/xlink" x="0px" y="0px"
	 viewBox="0 0 63.6 63.2" style="enable-background:new 0 0 63.6 63.2;" xml:space="preserve">
<style type="text/css">
	.Arched_x0020_Green{fill:url(#SVGID_1_);stroke:#FFFFFF;stroke-width:0.25;stroke-miterlimit:1;}
</style>
<linearGradient id="SVGID_1_" gradientUnits="userSpaceOnUse" x1="-2.4034" y1="102.3333" x2="-1.6963" y2="101.6262">
	<stop  offset="0" style="stop-color:#20AC4B"/>
	<stop  offset="0.9831" style="stop-color:#19361A"/>
</linearGradient>
<g>
	<path d="M33.1,59.6l-5.6-50c0,0-1.2-7.3,5.3-7.3c6.4,0,5.6,7.1,5.6,7.1L33.1,59.6z"/>
	<path d="M26,60L14.1,17c0,0-2-6.3,3.5-6.7c5.6-0.4,5.8,5.8,5.8,5.8L26,60z"/>
	<path d="M17.3,59.8L4.1,25.9c0,0-2.2-4.9,2.2-5.5c4.4-0.6,5.2,4.4,5.2,4.4L17.3,59.8z"/>
	<path d="M40.2,60l11.9-43c0,0,2-6.3-3.5-6.7c-5.6-0.4-5.8,5.8-5.8,5.8L40.2,60z"/>
	<path d="M48.9,59.8l13.2-33.9c0,0,2.2-4.9-2.2-5.5c-4.4-0.6-5.2,4.4-5.2,4.4L48.9,59.8z"/>
</g>
</svg>
